<svg width="16" height="16" viewBox="0 0 16 16" fill="none" xmlns="http://www.w3.org/2000/svg">
<path d="M16 7.99997C16 10.1217 15.1572 12.1565 13.6569 13.6568C12.1566 15.1571 10.1218 16 8.00003 16C5.8783 16 3.84346 15.1571 2.34317 13.6568C0.842883 12.1565 2.87478e-05 10.1217 2.91188e-05 7.99997C2.94898e-05 5.87824 0.842885 3.84341 2.34318 2.34312C3.84347 0.842825 5.8783 -2.94898e-05 8.00003 -2.91188e-05C10.1218 -2.87478e-05 12.1566 0.842826 13.6569 2.34312C15.1572 3.84341 16 5.87824 16 7.99997V7.99997ZM12.03 4.96997C11.9586 4.89879 11.8735 4.84274 11.78 4.80519C11.6864 4.76763 11.5862 4.74933 11.4854 4.75138C11.3845 4.75344 11.2852 4.7758 11.1932 4.81714C11.1012 4.85848 11.0185 4.91794 10.95 4.99197L7.47703 9.41697L5.38403 7.32297C5.24185 7.19049 5.05381 7.11837 4.85951 7.1218C4.66521 7.12522 4.47982 7.20394 4.34241 7.34135C4.20499 7.47876 4.12628 7.66415 4.12285 7.85845C4.11943 8.05275 4.19155 8.2408 4.32403 8.38297L6.97003 11.03C7.04131 11.1011 7.12619 11.1572 7.21961 11.1948C7.31303 11.2325 7.41308 11.2509 7.51377 11.249C7.61447 11.2472 7.71376 11.225 7.80573 11.184C7.89769 11.1429 7.98043 11.0837 8.04903 11.01L12.041 6.01997C12.1771 5.87847 12.2523 5.68925 12.2504 5.49293C12.2486 5.29661 12.1698 5.10885 12.031 4.96997L12.03 4.96997Z" fill="#06D6A0"/>
</svg>
